<svg version="1.1" id="Layer_1" xmlns="http://www.w3.org/2000/svg" xmlns:xlink="http://www.w3.org/1999/xlink" x="0px" y="0px"
	 width="100%" viewBox="0 0 788 788" enable-background="new 0 0 788 788" xml:space="preserve">
<path fill="#FEFEFE" opacity="1.000000" stroke="none" 
	d="
M789.000000,410.000000 
	C789.000000,536.260315 789.000000,662.520630 789.000000,789.000000 
	C666.310791,789.000000 543.621399,789.000000 420.641113,788.599487 
	C514.715881,782.276428 596.528870,746.540405 665.097534,682.027344 
	C733.897217,617.296875 773.708496,537.141235 786.089600,442.956360 
	C784.380432,443.446442 783.158264,443.813324 781.927246,444.147430 
	C759.737976,450.169830 737.924316,450.224457 716.663879,440.251160 
	C715.455811,439.684448 713.507263,439.877716 712.212585,440.435272 
	C687.516846,451.070343 662.884888,451.041504 638.202087,440.388000 
	C636.929504,439.838745 634.952942,439.699738 633.791565,440.304962 
	C623.665710,445.581573 612.779968,447.471283 601.549500,447.999817 
	C587.282593,448.671295 573.408875,446.910583 559.895142,440.783173 
	C560.005188,442.762024 559.987244,444.245361 560.183533,445.699829 
	C563.856689,472.912781 567.312561,500.158783 571.386169,527.312012 
	C572.729004,536.262451 575.613037,544.989868 577.982117,553.768066 
	C578.293030,554.920166 579.592224,556.413696 580.677979,556.656555 
	C595.012024,559.862122 601.698853,569.979065 603.989502,583.317383 
	C605.323425,591.084839 605.177673,599.122070 605.454407,607.046448 
	C605.545044,609.642273 606.193787,610.651062 608.947327,611.263672 
	C616.236816,612.885559 623.591370,614.578613 630.546265,617.225403 
	C636.038574,619.315613 641.456543,622.262329 646.034973,625.920654 
	C651.413818,630.218445 651.290100,636.501709 646.127808,641.068542 
	C642.835449,643.981079 638.835632,646.340576 634.785889,648.105774 
	C620.319641,654.411560 604.869629,656.930054 589.362671,658.997864 
	C558.234253,663.148865 526.969788,663.830261 495.663910,661.892700 
	C482.780334,661.095337 469.947815,659.472778 456.579803,658.175842 
	C457.243958,655.693176 457.650665,654.172913 458.129242,652.384033 
	C484.899872,656.602600 511.482635,657.596924 538.137268,657.148560 
	C564.986206,656.697021 591.705139,654.717957 617.771240,647.879639 
	C625.388611,645.881409 632.864502,642.722290 639.816406,638.996643 
	C645.867126,635.753967 645.727539,631.796875 640.029053,627.987000 
	C629.770081,621.128052 617.942932,618.758057 605.800049,616.319092 
	C605.421875,622.388428 605.084106,627.809082 604.758789,633.029602 
	C603.228027,633.468079 602.114014,633.646057 601.121033,634.092834 
	C586.476379,640.682068 571.865417,640.613342 557.175049,634.165527 
	C555.960388,633.632385 554.067261,633.832458 552.787720,634.383972 
	C538.405029,640.582458 524.097656,640.479858 509.699951,634.417786 
	C508.311401,633.833191 506.230408,633.759705 504.890350,634.370056 
	C492.457733,640.032166 479.750885,640.118286 466.908417,636.349487 
	C465.599213,635.965332 464.055389,633.727661 463.974518,632.274658 
	C463.643005,626.318481 463.836121,620.333069 463.836121,613.737244 
	C456.745911,614.918945 450.117249,616.023682 443.270691,617.164795 
	C442.876129,615.332703 442.549500,613.815979 442.140564,611.917175 
	C449.554077,610.553711 456.554474,609.266235 463.517761,607.985535 
	C463.517761,604.166992 463.517761,600.594421 463.517761,596.028625 
	C448.253662,599.179993 433.489014,602.228210 418.361176,605.351440 
	C418.007263,604.121521 417.536865,602.486755 416.835480,600.049255 
	C432.792847,596.741028 448.182739,593.550415 463.547913,590.364990 
	C463.547913,558.442139 463.547913,526.519165 463.547913,494.381226 
	C460.677368,494.381226 458.093689,494.381226 454.879150,494.381226 
	C454.879150,524.588501 454.879150,554.617432 454.879150,584.466919 
	C413.187134,584.466919 372.125732,584.466919 330.562134,584.466919 
	C330.562134,554.187622 330.562134,524.277039 330.562134,494.474060 
	C327.462311,494.474060 324.871857,494.474060 322.334839,494.474060 
	C322.334839,526.690979 322.334839,558.597046 322.334839,589.905090 
	C339.104553,593.319824 355.438904,596.645996 372.149567,600.048706 
	C371.144806,602.926636 370.626892,604.410156 370.328705,605.264282 
	C354.040497,601.982910 338.299591,598.811829 322.302490,595.589172 
	C322.302490,600.224304 322.302490,603.979431 322.302490,607.732239 
	C325.385162,608.194275 328.182861,608.563171 330.962372,609.038574 
	C345.560455,611.535645 360.150116,614.130798 373.482452,621.043213 
	C378.597076,623.695068 383.678314,626.976807 383.703766,633.480164 
	C383.729340,640.008179 378.769470,643.707764 373.479523,645.834717 
	C364.733826,649.351196 355.832062,652.991943 346.645721,654.816040 
	C291.155457,665.834473 235.450546,665.718384 179.888840,655.619263 
	C168.472244,653.544067 157.136887,649.226868 146.700104,644.054443 
	C135.982452,638.742737 136.396881,629.243896 146.477600,622.785034 
	C149.395966,620.915161 152.524124,619.193848 155.786392,618.077271 
	C162.377533,615.821167 169.048691,613.669983 175.842087,612.186646 
	C179.390366,611.411865 180.347137,609.884216 180.475647,606.614929 
	C180.766113,599.224426 180.725647,591.739868 181.950592,584.484497 
	C184.257172,570.822754 190.698242,560.155640 205.429596,556.722473 
	C206.235672,556.534668 207.297485,555.798523 207.536438,555.082642 
	C209.474792,549.275269 212.011765,543.529480 212.930511,537.544495 
	C216.465271,514.518250 219.491745,491.413513 222.649887,468.330170 
	C223.652695,461.000610 224.475388,453.646393 225.435730,445.855469 
	C222.840271,446.055023 221.193771,446.057678 219.591003,446.323792 
	C199.992355,449.577332 180.816299,449.167694 162.550110,440.091614 
	C161.594131,439.616638 159.996613,439.659882 159.013260,440.126587 
	C137.446136,450.363007 115.090195,450.797150 92.909233,443.628540 
	C85.091835,441.102081 79.157852,440.996613 71.329887,443.595276 
	C48.434040,451.196014 25.499357,449.933044 2.761982,439.237152 
	C3.879665,445.928711 4.728461,452.293518 6.031925,458.563782 
	C9.386404,474.700409 12.117267,491.028351 16.590052,506.858032 
	C25.801065,539.456970 39.781891,570.159729 57.124149,599.210144 
	C73.328644,626.354736 93.133392,650.846008 115.140320,673.501831 
	C121.668716,680.222778 128.757782,686.461914 136.025757,692.387329 
	C147.624283,701.843262 159.340469,711.192810 171.451950,719.973450 
	C192.082779,734.930542 214.376648,747.223633 237.928680,756.768250 
	C256.983612,764.490356 276.603394,771.003784 296.338562,776.809387 
	C315.502930,782.447021 335.258636,785.718689 355.275177,787.057495 
	C359.872833,787.364990 364.426208,788.334961 369.000000,789.000000 
	C246.405380,789.000000 123.810760,789.000000 1.000000,789.000000 
	C1.000000,666.644104 1.000000,544.288086 1.399490,421.639771 
	C3.867121,425.773468 -1.659992,431.637726 7.192580,435.291199 
	C28.801283,444.209167 50.292450,445.414185 71.793922,437.501587 
	C79.365799,434.715088 84.564987,434.586060 92.288544,437.417297 
	C115.490128,445.922180 138.828506,445.112488 160.895889,432.752014 
	C180.759720,444.323120 201.916092,444.650818 223.613297,439.628265 
	C224.923965,439.324829 226.616913,437.470917 226.825684,436.134460 
	C228.083557,428.081665 228.952759,419.968414 229.965576,411.877075 
	C233.311554,385.146820 236.223038,358.351746 240.187897,331.713501 
	C242.358139,317.132446 246.283264,302.807617 253.905960,288.608459 
	C255.728897,297.310791 257.104309,305.100922 259.014008,312.757782 
	C264.198151,333.543213 269.519958,354.295471 274.969757,375.012909 
	C277.425537,384.348419 284.002197,389.873291 292.904999,392.883057 
	C295.580658,393.787598 298.264893,394.701843 301.002136,395.382874 
	C312.771423,398.311157 324.680054,399.912903 336.776611,399.378296 
	C336.776611,362.438934 336.776611,326.062073 336.776611,289.788025 
	C333.940613,289.788025 331.496887,289.788025 328.501099,289.788025 
	C328.501099,323.456543 328.501099,356.854401 328.501099,391.502228 
	C318.325500,389.516052 308.880371,387.838806 299.514526,385.797729 
	C290.059448,383.737274 284.147736,377.962189 281.840668,368.368561 
	C276.984772,348.175903 271.832581,328.054504 266.977631,307.861633 
	C264.743286,298.568481 262.922333,289.175964 260.728943,278.967316 
	C251.054993,282.761597 245.833115,276.960938 240.258759,271.524353 
	C235.837997,267.212891 230.987976,263.341553 225.283905,258.362976 
	C249.267899,258.362976 271.830078,258.362976 294.532593,258.362976 
	C294.532593,255.298203 294.532593,252.736282 294.532593,249.765320 
	C270.496429,249.765320 246.759186,249.765320 222.227829,249.765320 
	C224.172745,245.399048 225.599716,241.526428 227.622620,237.995178 
	C228.393738,236.649063 230.504364,235.348434 232.051376,235.291092 
	C239.540222,235.013580 247.044998,235.165863 254.544128,235.165833 
	C260.297699,235.165817 266.051300,235.165833 271.703491,235.165833 
	C271.703491,231.891083 271.703491,229.294876 271.703491,226.237976 
	C258.685577,226.237976 245.958542,226.237976 232.855682,226.237976 
	C235.762558,219.818390 238.415329,213.927109 241.094742,208.047958 
	C259.003815,168.751846 276.916748,129.457489 294.835327,90.165718 
	C296.097260,87.398605 296.930298,84.068939 301.167572,85.317482 
	C300.332581,88.187256 299.523834,90.663689 298.775391,92.955521 
	C312.732819,102.510460 320.260071,116.616600 328.343140,130.335373 
	C331.083252,129.017532 333.446808,127.880791 336.066925,126.620667 
	C329.524902,113.753304 322.121887,101.820290 311.762024,92.058624 
	C308.705780,89.178833 304.665283,87.343582 300.939392,84.664177 
	C314.600098,79.522141 328.232727,74.180893 342.233459,70.103477 
	C362.432037,64.221062 383.041809,60.768532 404.282745,62.684978 
	C431.549408,65.145096 457.319702,73.171135 482.593658,83.155754 
	C483.476532,83.504524 484.150909,84.381004 484.615753,85.166260 
	C482.389801,86.270317 480.231750,86.917679 478.589172,88.216812 
	C465.676910,98.429169 457.442841,112.121750 449.719238,126.681557 
	C452.719696,128.048859 455.196594,129.177597 457.661469,130.300842 
	C465.801910,116.106255 473.463470,102.274986 487.038422,93.060844 
	C486.286163,90.307800 485.548615,87.608482 485.160522,84.689011 
	C487.302948,86.225761 489.805511,87.656738 490.784302,89.787636 
	C510.891235,133.563492 530.826660,177.418137 550.782898,221.263153 
	C551.500916,222.840561 552.083008,224.479752 552.971680,226.697113 
	C540.165771,226.697113 528.075256,226.697113 515.804382,226.697113 
	C515.804382,229.680725 515.804382,232.232208 515.804382,235.165833 
	C528.396362,235.165833 540.699341,235.108704 553.000427,235.235275 
	C554.609863,235.251846 557.046936,235.734894 557.663757,236.819229 
	C559.914246,240.775589 561.555725,245.078369 563.798340,250.079529 
	C539.412720,250.079529 516.042419,250.079529 492.796844,250.079529 
	C492.796844,253.081421 492.796844,255.523163 492.796844,258.651306 
	C515.171570,258.651306 537.271667,258.651306 560.171570,258.651306 
	C553.271912,264.757416 546.916077,269.895325 541.178772,275.649902 
	C537.950256,278.888153 534.696289,280.663605 530.265503,279.803558 
	C525.920715,278.960144 524.529785,281.156555 523.760437,284.989136 
	C520.946777,299.006958 518.221741,313.055756 514.857971,326.946320 
	C511.260406,341.802063 507.219086,356.564240 502.828979,371.204590 
	C501.710785,374.933502 499.303009,379.277161 496.172791,381.222504 
	C484.578125,388.428101 471.287201,389.622772 457.352478,390.565674 
	C457.352478,356.641388 457.352478,323.255035 457.352478,289.873657 
	C454.199341,289.873657 451.652283,289.873657 449.076752,289.873657 
	C449.076752,326.505463 449.076752,362.774567 449.076752,400.445862 
	C460.115723,398.994385 470.767853,397.719116 481.380005,396.170166 
	C499.006104,393.597473 510.268555,384.278687 514.139038,366.226379 
	C518.702698,344.941315 524.015930,323.817169 528.980164,302.617676 
	C529.972046,298.382111 530.855774,294.121246 531.789307,289.872070 
	C534.290161,293.188721 535.910828,296.454803 537.152954,299.859070 
	C545.542542,322.852417 548.994324,346.903625 551.934998,371.017578 
	C554.150818,389.187836 556.245789,407.399139 557.443237,425.654572 
	C557.938293,433.201508 561.756775,436.128998 567.868042,438.009430 
	C591.378723,445.243744 614.287231,444.948944 635.615662,432.961273 
	C662.364746,446.170044 688.489502,446.148193 715.269104,432.755707 
	C726.624634,440.850708 740.530640,442.968536 754.562683,442.558197 
	C764.227783,442.275543 773.845886,439.579559 783.412048,437.608490 
	C784.814819,437.319458 786.700134,435.155029 786.846130,433.705658 
	C787.523132,426.985718 787.626465,420.209534 788.036438,413.459656 
	C788.107361,412.291229 788.666382,411.152466 789.000000,410.000000 
M425.545258,325.500214 
	C425.545258,312.339111 425.711853,299.174622 425.446442,286.018860 
	C425.364044,281.934357 426.689362,279.385223 429.820587,276.809570 
	C449.452026,260.661316 460.726959,239.813507 464.214386,214.645187 
	C464.423126,213.138748 466.037659,211.674896 467.284454,210.493500 
	C470.816864,207.146362 475.750702,204.620956 477.893097,200.583557 
	C485.226166,186.764175 485.556122,171.789673 481.876160,156.886063 
	C479.870178,148.762070 471.964386,145.840103 463.850800,149.455551 
	C464.457428,151.917969 465.076141,154.429291 465.694824,156.940628 
	C466.061188,156.547516 466.427551,156.154404 466.793884,155.761307 
	C469.135681,157.233902 473.154572,158.356216 473.547180,160.235916 
	C476.102722,172.471191 476.039948,184.724991 470.350037,196.295517 
	C468.185852,200.696442 464.794006,203.290527 459.464386,202.119522 
	C458.410645,201.888000 457.262451,202.086136 456.181549,202.086136 
	C455.941040,205.833450 455.902802,209.309540 455.468811,212.735489 
	C451.943848,240.562149 437.736115,261.625854 414.753845,277.238342 
	C399.586792,287.541718 384.645813,287.497894 370.017273,276.355774 
	C353.595947,263.848114 341.457916,247.998718 334.953949,228.327393 
	C332.171204,219.911072 330.741760,211.047287 328.655762,202.210464 
	C318.067566,201.856934 314.740570,199.492523 312.489197,187.902695 
	C311.171295,181.118332 311.111053,174.023056 311.105988,167.067215 
	C311.099762,158.511505 312.177917,157.587723 320.450165,156.441132 
	C320.948486,153.995132 321.463715,151.466110 321.973389,148.964417 
	C311.062073,146.106979 304.385406,150.165207 303.048004,160.770050 
	C302.240479,167.173492 301.679382,173.787140 302.359924,180.161957 
	C303.791748,193.573898 305.987000,206.968719 321.531525,211.607239 
	C325.716034,237.716888 337.626343,259.289948 356.806030,276.839172 
	C359.263214,279.087463 360.225647,281.235535 360.209656,284.494202 
	C360.090179,308.816528 359.918976,333.142731 360.244080,357.461273 
	C360.396790,368.882263 361.610291,380.289062 362.358337,391.939941 
	C382.903107,391.939941 402.980713,391.939941 424.334656,391.939941 
	C424.740265,370.013031 425.142670,348.256622 425.545258,325.500214 
M378.136932,633.490295 
	C375.537079,630.890503 373.375244,627.442932 370.262939,625.835022 
	C355.295685,618.101868 338.837677,615.857483 321.997040,613.364685 
	C321.997040,619.466064 321.801636,625.115051 322.077423,630.740906 
	C322.220734,633.664978 321.014191,635.021362 318.512085,635.819763 
	C305.039185,640.119019 291.749390,640.277771 278.605316,634.406067 
	C277.247589,633.799561 275.164581,633.802856 273.794312,634.394409 
	C259.584686,640.529602 245.435272,640.375732 231.141174,634.683899 
	C229.480118,634.022522 227.092285,633.942139 225.471390,634.620239 
	C212.078964,640.222656 198.670868,640.246582 185.092773,635.445557 
	C182.194733,634.420898 180.855896,632.649048 180.831909,629.533203 
	C180.800385,625.440552 180.449295,621.350403 180.148483,615.590515 
	C169.621628,619.576721 159.917450,623.183044 150.284897,626.971436 
	C148.811401,627.550903 147.583313,628.882324 146.391235,630.022278 
	C144.039032,632.271606 143.850342,634.908752 146.400116,636.901123 
	C149.375229,639.225891 152.517960,641.912964 156.020187,642.884033 
	C169.427155,646.601562 182.845306,650.793762 196.553268,652.815247 
	C239.949265,659.214661 283.490540,658.855835 326.940338,652.910156 
	C341.271240,650.949097 355.597107,648.448364 368.718872,641.953186 
	C372.238068,640.211182 374.960236,636.858765 378.136932,633.490295 
M420.062744,130.197739 
	C426.735443,131.391891 433.408142,132.586044 440.424072,133.841629 
	C441.334320,131.526611 442.287506,129.102325 443.602112,125.758873 
	C409.719940,117.776390 376.445892,117.677742 342.666351,125.819122 
	C344.079895,129.190704 345.089966,131.599945 346.114960,134.044785 
	C370.430359,128.121765 394.708191,127.415886 420.062744,130.197739 
M409.980896,159.419891 
	C408.150177,162.123337 406.319458,164.826782 404.260040,167.867981 
	C407.057159,169.360794 409.468658,170.647812 412.181213,172.095505 
	C415.166107,166.556442 418.476074,161.181870 425.594269,164.157837 
	C430.757721,166.316559 435.437958,169.631226 440.985657,172.803253 
	C442.182129,172.019775 444.456085,170.530777 446.782806,169.007233 
	C441.709229,161.384735 435.346619,156.690521 427.070648,155.382935 
	C421.284149,154.468674 415.049255,153.281876 409.980896,159.419891 
M373.863403,170.378235 
	C376.742371,169.877457 379.621368,169.376663 382.831573,168.818268 
	C376.343445,156.447311 373.712555,154.459808 364.528412,154.841446 
	C354.063232,155.276291 346.120667,160.042236 340.208496,169.122498 
	C342.860138,170.793884 345.077972,172.191818 347.269562,173.573227 
	C358.959686,161.289642 366.837524,160.196060 373.863403,170.378235 
z"/>
<path fill="#090D80" opacity="1.000000" stroke="none" 
	d="
M301.193848,84.924133 
	C296.930298,84.068939 296.097260,87.398605 294.835327,90.165718 
	C276.916748,129.457489 259.003815,168.751846 241.094742,208.047958 
	C238.415329,213.927109 235.762558,219.818390 232.855682,226.237976 
	C245.958542,226.237976 258.685577,226.237976 271.703491,226.237976 
	C271.703491,229.294876 271.703491,231.891083 271.703491,235.165833 
	C266.051300,235.165833 260.297699,235.165817 254.544128,235.165833 
	C247.044998,235.165863 239.540222,235.013580 232.051376,235.291092 
	C230.504364,235.348434 228.393738,236.649063 227.622620,237.995178 
	C225.599716,241.526428 224.172745,245.399048 222.227829,249.765320 
	C246.759186,249.765320 270.496429,249.765320 294.532593,249.765320 
	C294.532593,252.736282 294.532593,255.298203 294.532593,258.362976 
	C271.830078,258.362976 249.267899,258.362976 225.283905,258.362976 
	C230.987976,263.341553 235.837997,267.212891 240.258759,271.524353 
	C245.833115,276.960938 251.054993,282.761597 260.728943,278.967316 
	C262.922333,289.175964 264.743286,298.568481 266.977631,307.861633 
	C271.832581,328.054504 276.984772,348.175903 281.840668,368.368561 
	C284.147736,377.962189 290.059448,383.737274 299.514526,385.797729 
	C308.880371,387.838806 318.325500,389.516052 328.501099,391.502228 
	C328.501099,356.854401 328.501099,323.456543 328.501099,289.788025 
	C331.496887,289.788025 333.940613,289.788025 336.776611,289.788025 
	C336.776611,326.062073 336.776611,362.438934 336.776611,399.378296 
	C324.680054,399.912903 312.771423,398.311157 301.002136,395.382874 
	C298.264893,394.701843 295.580658,393.787598 292.904999,392.883057 
	C284.002197,389.873291 277.425537,384.348419 274.969757,375.012909 
	C269.519958,354.295471 264.198151,333.543213 259.014008,312.757782 
	C257.104309,305.100922 255.728897,297.310791 253.905960,288.608459 
	C246.283264,302.807617 242.358139,317.132446 240.187897,331.713501 
	C236.223038,358.351746 233.311554,385.146820 229.965576,411.877075 
	C228.952759,419.968414 228.083557,428.081665 226.825684,436.134460 
	C226.616913,437.470917 224.923965,439.324829 223.613297,439.628265 
	C201.916092,444.650818 180.759720,444.323120 160.895889,432.752014 
	C138.828506,445.112488 115.490128,445.922180 92.288544,437.417297 
	C84.564987,434.586060 79.365799,434.715088 71.793922,437.501587 
	C50.292450,445.414185 28.801283,444.209167 7.192580,435.291199 
	C-1.659992,431.637726 3.867121,425.773468 1.399490,421.173737 
	C1.000000,403.979095 1.000000,386.958221 1.399339,369.293915 
	C3.197338,356.150330 3.797394,343.495392 6.182294,331.186279 
	C9.737661,312.836121 13.793739,294.509766 19.001459,276.569427 
	C27.668655,246.711395 40.864285,218.773132 56.886623,192.077438 
	C71.536865,167.667862 88.671379,145.224731 108.084282,124.517471 
	C124.869179,106.613464 143.422348,90.686172 163.234222,76.142097 
	C189.458130,56.890915 217.796341,41.406204 247.809189,29.252485 
	C272.007751,19.453257 297.055786,12.073449 322.991882,7.819874 
	C340.438965,4.958514 357.825165,2.165669 375.542419,1.957096 
	C376.698547,1.943486 377.847626,1.332897 379.000000,0.999999 
	C389.020905,1.000000 399.041779,1.000000 409.709381,1.401595 
	C425.198975,3.200394 440.183289,3.753504 454.848663,6.210356 
	C472.824280,9.221773 490.779480,12.957885 508.303162,17.932081 
	C539.607971,26.818136 569.072815,40.158257 597.072144,56.904140 
	C625.109314,73.672668 650.772644,93.492271 673.627441,116.639420 
	C687.390320,130.578369 699.668579,146.072174 711.818054,161.494324 
	C730.324768,184.986038 744.911377,210.984253 756.598022,238.425583 
	C768.304382,265.913452 777.304688,294.301666 782.193420,323.964264 
	C785.125488,341.754395 787.969238,359.470825 788.043823,377.540741 
	C788.048584,378.695160 788.666992,379.846985 789.000000,381.000000 
	C789.000000,390.354218 789.000000,399.708466 789.000000,409.531342 
	C788.666382,411.152466 788.107361,412.291229 788.036438,413.459656 
	C787.626465,420.209534 787.523132,426.985718 786.846130,433.705658 
	C786.700134,435.155029 784.814819,437.319458 783.412048,437.608490 
	C773.845886,439.579559 764.227783,442.275543 754.562683,442.558197 
	C740.530640,442.968536 726.624634,440.850708 715.269104,432.755707 
	C688.489502,446.148193 662.364746,446.170044 635.615662,432.961273 
	C614.287231,444.948944 591.378723,445.243744 567.868042,438.009430 
	C561.756775,436.128998 557.938293,433.201508 557.443237,425.654572 
	C556.245789,407.399139 554.150818,389.187836 551.934998,371.017578 
	C548.994324,346.903625 545.542542,322.852417 537.152954,299.859070 
	C535.910828,296.454803 534.290161,293.188721 531.789307,289.872070 
	C530.855774,294.121246 529.972046,298.382111 528.980164,302.617676 
	C524.015930,323.817169 518.702698,344.941315 514.139038,366.226379 
	C510.268555,384.278687 499.006104,393.597473 481.380005,396.170166 
	C470.767853,397.719116 460.115723,398.994385 449.076752,400.445862 
	C449.076752,362.774567 449.076752,326.505463 449.076752,289.873657 
	C451.652283,289.873657 454.199341,289.873657 457.352478,289.873657 
	C457.352478,323.255035 457.352478,356.641388 457.352478,390.565674 
	C471.287201,389.622772 484.578125,388.428101 496.172791,381.222504 
	C499.303009,379.277161 501.710785,374.933502 502.828979,371.204590 
	C507.219086,356.564240 511.260406,341.802063 514.857971,326.946320 
	C518.221741,313.055756 520.946777,299.006958 523.760437,284.989136 
	C524.529785,281.156555 525.920715,278.960144 530.265503,279.803558 
	C534.696289,280.663605 537.950256,278.888153 541.178772,275.649902 
	C546.916077,269.895325 553.271912,264.757416 560.171570,258.651306 
	C537.271667,258.651306 515.171570,258.651306 492.796844,258.651306 
	C492.796844,255.523163 492.796844,253.081421 492.796844,250.079529 
	C516.042419,250.079529 539.412720,250.079529 563.798340,250.079529 
	C561.555725,245.078369 559.914246,240.775589 557.663757,236.819229 
	C557.046936,235.734894 554.609863,235.251846 553.000427,235.235275 
	C540.699341,235.108704 528.396362,235.165833 515.804382,235.165833 
	C515.804382,232.232208 515.804382,229.680725 515.804382,226.697113 
	C528.075256,226.697113 540.165771,226.697113 552.971680,226.697113 
	C552.083008,224.479752 551.500916,222.840561 550.782898,221.263153 
	C530.826660,177.418137 510.891235,133.563492 490.784302,89.787636 
	C489.805511,87.656738 487.302948,86.225761 485.179321,84.724457 
	C484.848663,84.980049 484.922455,85.011543 484.922455,85.011536 
	C484.150909,84.381004 483.476532,83.504524 482.593658,83.155754 
	C457.319702,73.171135 431.549408,65.145096 404.282745,62.684978 
	C383.041809,60.768532 362.432037,64.221062 342.233459,70.103477 
	C328.232727,74.180893 314.600098,79.522141 300.976501,84.646271 
	C301.149994,84.993835 301.193848,84.924133 301.193848,84.924133 
z"/>
<path fill="#090D80" opacity="1.000000" stroke="none" 
	d="
M369.468658,789.000000 
	C364.426208,788.334961 359.872833,787.364990 355.275177,787.057495 
	C335.258636,785.718689 315.502930,782.447021 296.338562,776.809387 
	C276.603394,771.003784 256.983612,764.490356 237.928680,756.768250 
	C214.376648,747.223633 192.082779,734.930542 171.451950,719.973450 
	C159.340469,711.192810 147.624283,701.843262 136.025757,692.387329 
	C128.757782,686.461914 121.668716,680.222778 115.140320,673.501831 
	C93.133392,650.846008 73.328644,626.354736 57.124149,599.210144 
	C39.781891,570.159729 25.801065,539.456970 16.590052,506.858032 
	C12.117267,491.028351 9.386404,474.700409 6.031925,458.563782 
	C4.728461,452.293518 3.879665,445.928711 2.761982,439.237152 
	C25.499357,449.933044 48.434040,451.196014 71.329887,443.595276 
	C79.157852,440.996613 85.091835,441.102081 92.909233,443.628540 
	C115.090195,450.797150 137.446136,450.363007 159.013260,440.126587 
	C159.996613,439.659882 161.594131,439.616638 162.550110,440.091614 
	C180.816299,449.167694 199.992355,449.577332 219.591003,446.323792 
	C221.193771,446.057678 222.840271,446.055023 225.435730,445.855469 
	C224.475388,453.646393 223.652695,461.000610 222.649887,468.330170 
	C219.491745,491.413513 216.465271,514.518250 212.930511,537.544495 
	C212.011765,543.529480 209.474792,549.275269 207.536438,555.082642 
	C207.297485,555.798523 206.235672,556.534668 205.429596,556.722473 
	C190.698242,560.155640 184.257172,570.822754 181.950592,584.484497 
	C180.725647,591.739868 180.766113,599.224426 180.475647,606.614929 
	C180.347137,609.884216 179.390366,611.411865 175.842087,612.186646 
	C169.048691,613.669983 162.377533,615.821167 155.786392,618.077271 
	C152.524124,619.193848 149.395966,620.915161 146.477600,622.785034 
	C136.396881,629.243896 135.982452,638.742737 146.700104,644.054443 
	C157.136887,649.226868 168.472244,653.544067 179.888840,655.619263 
	C235.450546,665.718384 291.155457,665.834473 346.645721,654.816040 
	C355.832062,652.991943 364.733826,649.351196 373.479523,645.834717 
	C378.769470,643.707764 383.729340,640.008179 383.703766,633.480164 
	C383.678314,626.976807 378.597076,623.695068 373.482452,621.043213 
	C360.150116,614.130798 345.560455,611.535645 330.962372,609.038574 
	C328.182861,608.563171 325.385162,608.194275 322.302490,607.732239 
	C322.302490,603.979431 322.302490,600.224304 322.302490,595.589172 
	C338.299591,598.811829 354.040497,601.982910 370.328705,605.264282 
	C370.626892,604.410156 371.144806,602.926636 372.149567,600.048706 
	C355.438904,596.645996 339.104553,593.319824 322.334839,589.905090 
	C322.334839,558.597046 322.334839,526.690979 322.334839,494.474060 
	C324.871857,494.474060 327.462311,494.474060 330.562134,494.474060 
	C330.562134,524.277039 330.562134,554.187622 330.562134,584.466919 
	C372.125732,584.466919 413.187134,584.466919 454.879150,584.466919 
	C454.879150,554.617432 454.879150,524.588501 454.879150,494.381226 
	C458.093689,494.381226 460.677368,494.381226 463.547913,494.381226 
	C463.547913,526.519165 463.547913,558.442139 463.547913,590.364990 
	C448.182739,593.550415 432.792847,596.741028 416.835480,600.049255 
	C417.536865,602.486755 418.007263,604.121521 418.361176,605.351440 
	C433.489014,602.228210 448.253662,599.179993 463.517761,596.028625 
	C463.517761,600.594421 463.517761,604.166992 463.517761,607.985535 
	C456.554474,609.266235 449.554077,610.553711 442.140564,611.917175 
	C442.549500,613.815979 442.876129,615.332703 443.270691,617.164795 
	C450.117249,616.023682 456.745911,614.918945 463.836121,613.737244 
	C463.836121,620.333069 463.643005,626.318481 463.974518,632.274658 
	C464.055389,633.727661 465.599213,635.965332 466.908417,636.349487 
	C479.750885,640.118286 492.457733,640.032166 504.890350,634.370056 
	C506.230408,633.759705 508.311401,633.833191 509.699951,634.417786 
	C524.097656,640.479858 538.405029,640.582458 552.787720,634.383972 
	C554.067261,633.832458 555.960388,633.632385 557.175049,634.165527 
	C571.865417,640.613342 586.476379,640.682068 601.121033,634.092834 
	C602.114014,633.646057 603.228027,633.468079 604.758789,633.029602 
	C605.084106,627.809082 605.421875,622.388428 605.800049,616.319092 
	C617.942932,618.758057 629.770081,621.128052 640.029053,627.987000 
	C645.727539,631.796875 645.867126,635.753967 639.816406,638.996643 
	C632.864502,642.722290 625.388611,645.881409 617.771240,647.879639 
	C591.705139,654.717957 564.986206,656.697021 538.137268,657.148560 
	C511.482635,657.596924 484.899872,656.602600 458.129242,652.384033 
	C457.650665,654.172913 457.243958,655.693176 456.579803,658.175842 
	C469.947815,659.472778 482.780334,661.095337 495.663910,661.892700 
	C526.969788,663.830261 558.234253,663.148865 589.362671,658.997864 
	C604.869629,656.930054 620.319641,654.411560 634.785889,648.105774 
	C638.835632,646.340576 642.835449,643.981079 646.127808,641.068542 
	C651.290100,636.501709 651.413818,630.218445 646.034973,625.920654 
	C641.456543,622.262329 636.038574,619.315613 630.546265,617.225403 
	C623.591370,614.578613 616.236816,612.885559 608.947327,611.263672 
	C606.193787,610.651062 605.545044,609.642273 605.454407,607.046448 
	C605.177673,599.122070 605.323425,591.084839 603.989502,583.317383 
	C601.698853,569.979065 595.012024,559.862122 580.677979,556.656555 
	C579.592224,556.413696 578.293030,554.920166 577.982117,553.768066 
	C575.613037,544.989868 572.729004,536.262451 571.386169,527.312012 
	C567.312561,500.158783 563.856689,472.912781 560.183533,445.699829 
	C559.987244,444.245361 560.005188,442.762024 559.895142,440.783173 
	C573.408875,446.910583 587.282593,448.671295 601.549500,447.999817 
	C612.779968,447.471283 623.665710,445.581573 633.791565,440.304962 
	C634.952942,439.699738 636.929504,439.838745 638.202087,440.388000 
	C662.884888,451.041504 687.516846,451.070343 712.212585,440.435272 
	C713.507263,439.877716 715.455811,439.684448 716.663879,440.251160 
	C737.924316,450.224457 759.737976,450.169830 781.927246,444.147430 
	C783.158264,443.813324 784.380432,443.446442 786.089600,442.956360 
	C773.708496,537.141235 733.897217,617.296875 665.097534,682.027344 
	C596.528870,746.540405 514.715881,782.276428 420.175110,788.599487 
	C403.312439,789.000000 386.624878,789.000000 369.468658,789.000000 
M263.500244,686.031799 
	C282.899170,685.119446 302.298096,684.207092 322.165649,683.272705 
	C321.888245,680.460999 321.733826,678.895996 321.667297,678.221558 
	C297.323578,678.878052 273.420624,680.499329 249.574448,679.891663 
	C225.590042,679.280457 201.662170,676.451477 177.315598,674.563721 
	C177.248810,675.103638 177.054260,676.676392 176.824829,678.531372 
	C205.394516,683.982483 233.844254,686.143311 263.500244,686.031799 
M575.512634,683.866028 
	C587.644958,682.215393 599.777344,680.564697 612.080627,678.890808 
	C611.879333,677.225098 611.875305,676.391724 611.659485,675.617371 
	C611.411987,674.729187 610.976746,673.893372 610.659241,673.122437 
	C562.852478,681.876587 515.166443,682.296082 467.231018,676.918640 
	C467.070190,678.531616 466.934479,679.507874 466.891632,680.488159 
	C466.870697,680.966797 467.022644,681.452942 467.171844,682.430115 
	C502.897186,686.831421 538.714172,687.185547 575.512634,683.866028 
M619.029358,597.487122 
	C617.557556,598.407410 616.085693,599.327759 614.227783,600.489441 
	C633.595398,604.795227 652.023804,609.725220 668.712219,620.469177 
	C669.738159,618.976746 670.699707,617.577942 671.757019,616.039917 
	C670.545410,615.169678 669.779907,614.543335 668.944397,614.031128 
	C654.733154,605.317810 639.066711,600.466309 622.962524,596.816101 
	C621.928345,596.581787 620.749084,596.987732 619.029358,597.487122 
M162.096680,597.607483 
	C146.220016,601.726807 130.629471,606.526672 116.755119,616.104553 
	C118.126907,617.805054 119.137077,619.057251 120.245888,620.431763 
	C136.472641,609.740723 154.696457,605.121521 173.101440,599.641907 
	C169.690765,598.866638 166.280075,598.091309 162.096680,597.607483 
z"/>
<path fill="#FFFFFF" opacity="1.000000" stroke="none" 
	d="
M789.000000,380.531342 
	C788.666992,379.846985 788.048584,378.695160 788.043823,377.540741 
	C787.969238,359.470825 785.125488,341.754395 782.193420,323.964264 
	C777.304688,294.301666 768.304382,265.913452 756.598022,238.425583 
	C744.911377,210.984253 730.324768,184.986038 711.818054,161.494324 
	C699.668579,146.072174 687.390320,130.578369 673.627441,116.639420 
	C650.772644,93.492271 625.109314,73.672668 597.072144,56.904140 
	C569.072815,40.158257 539.607971,26.818136 508.303162,17.932081 
	C490.779480,12.957885 472.824280,9.221773 454.848663,6.210356 
	C440.183289,3.753504 425.198975,3.200394 410.178040,1.401595 
	C536.260498,1.000000 662.520935,1.000000 789.000000,1.000000 
	C789.000000,127.354141 789.000000,253.708420 789.000000,380.531342 
z"/>
<path fill="#FFFFFF" opacity="1.000000" stroke="none" 
	d="
M378.531342,0.999999 
	C377.847626,1.332897 376.698547,1.943486 375.542419,1.957096 
	C357.825165,2.165669 340.438965,4.958514 322.991882,7.819874 
	C297.055786,12.073449 272.007751,19.453257 247.809189,29.252485 
	C217.796341,41.406204 189.458130,56.890915 163.234222,76.142097 
	C143.422348,90.686172 124.869179,106.613464 108.084282,124.517471 
	C88.671379,145.224731 71.536865,167.667862 56.886623,192.077438 
	C40.864285,218.773132 27.668655,246.711395 19.001459,276.569427 
	C13.793739,294.509766 9.737661,312.836121 6.182294,331.186279 
	C3.797394,343.495392 3.197338,356.150330 1.399339,368.825256 
	C1.000000,246.405273 1.000000,123.810555 1.000000,1.000000 
	C126.687477,1.000000 252.375076,1.000000 378.531342,0.999999 
z"/>
<path fill="#101484" opacity="1.000000" stroke="none" 
	d="
M425.545166,326.000244 
	C425.142670,348.256622 424.740265,370.013031 424.334656,391.939941 
	C402.980713,391.939941 382.903107,391.939941 362.358337,391.939941 
	C361.610291,380.289062 360.396790,368.882263 360.244080,357.461273 
	C359.918976,333.142731 360.090179,308.816528 360.209656,284.494202 
	C360.225647,281.235535 359.263214,279.087463 356.806030,276.839172 
	C337.626343,259.289948 325.716034,237.716888 321.531525,211.607239 
	C305.987000,206.968719 303.791748,193.573898 302.359924,180.161957 
	C301.679382,173.787140 302.240479,167.173492 303.048004,160.770050 
	C304.385406,150.165207 311.062073,146.106979 321.973389,148.964417 
	C321.463715,151.466110 320.948486,153.995132 320.450165,156.441132 
	C312.177917,157.587723 311.099762,158.511505 311.105988,167.067215 
	C311.111053,174.023056 311.171295,181.118332 312.489197,187.902695 
	C314.740570,199.492523 318.067566,201.856934 328.655762,202.210464 
	C330.741760,211.047287 332.171204,219.911072 334.953949,228.327393 
	C341.457916,247.998718 353.595947,263.848114 370.017273,276.355774 
	C384.645813,287.497894 399.586792,287.541718 414.753845,277.238342 
	C437.736115,261.625854 451.943848,240.562149 455.468811,212.735489 
	C455.902802,209.309540 455.941040,205.833450 456.181549,202.086136 
	C457.262451,202.086136 458.410645,201.888000 459.464386,202.119522 
	C464.794006,203.290527 468.185852,200.696442 470.350037,196.295517 
	C476.039948,184.724991 476.102722,172.471191 473.547180,160.235916 
	C473.154572,158.356216 469.135681,157.233902 466.793884,155.761307 
	C466.427551,156.154404 466.061188,156.547516 465.694824,156.940628 
	C465.076141,154.429291 464.457428,151.917969 463.850800,149.455551 
	C471.964386,145.840103 479.870178,148.762070 481.876160,156.886063 
	C485.556122,171.789673 485.226166,186.764175 477.893097,200.583557 
	C475.750702,204.620956 470.816864,207.146362 467.284454,210.493500 
	C466.037659,211.674896 464.423126,213.138748 464.214386,214.645187 
	C460.726959,239.813507 449.452026,260.661316 429.820587,276.809570 
	C426.689362,279.385223 425.364044,281.934357 425.446442,286.018860 
	C425.711853,299.174622 425.545258,312.339111 425.545166,326.000244 
M369.012207,339.499847 
	C369.012207,346.258972 369.012207,353.018097 369.012207,359.748871 
	C385.205750,359.748871 400.787872,359.748871 416.592072,359.748871 
	C416.592072,335.481812 416.592072,311.453430 416.592072,286.770782 
	C400.736908,296.144623 385.093506,295.680206 369.012207,286.588074 
	C369.012207,304.350769 369.012207,321.425323 369.012207,339.499847 
M415.123535,382.487000 
	C415.497375,378.080444 415.871185,373.673920 416.252014,369.184631 
	C400.436005,369.184631 385.233490,369.184631 369.697205,369.184631 
	C370.030640,374.124695 370.338623,378.687927 370.644714,383.222809 
	C385.723846,383.222809 400.182312,383.222809 415.123535,382.487000 
z"/>
<path fill="#0A0E81" opacity="1.000000" stroke="none" 
	d="
M378.092590,633.867920 
	C374.960236,636.858765 372.238068,640.211182 368.718872,641.953186 
	C355.597107,648.448364 341.271240,650.949097 326.940338,652.910156 
	C283.490540,658.855835 239.949265,659.214661 196.553268,652.815247 
	C182.845306,650.793762 169.427155,646.601562 156.020187,642.884033 
	C152.517960,641.912964 149.375229,639.225891 146.400116,636.901123 
	C143.850342,634.908752 144.039032,632.271606 146.391235,630.022278 
	C147.583313,628.882324 148.811401,627.550903 150.284897,626.971436 
	C159.917450,623.183044 169.621628,619.576721 180.148483,615.590515 
	C180.449295,621.350403 180.800385,625.440552 180.831909,629.533203 
	C180.855896,632.649048 182.194733,634.420898 185.092773,635.445557 
	C198.670868,640.246582 212.078964,640.222656 225.471390,634.620239 
	C227.092285,633.942139 229.480118,634.022522 231.141174,634.683899 
	C245.435272,640.375732 259.584686,640.529602 273.794312,634.394409 
	C275.164581,633.802856 277.247589,633.799561 278.605316,634.406067 
	C291.749390,640.277771 305.039185,640.119019 318.512085,635.819763 
	C321.014191,635.021362 322.220734,633.664978 322.077423,630.740906 
	C321.801636,625.115051 321.997040,619.466064 321.997040,613.364685 
	C338.837677,615.857483 355.295685,618.101868 370.262939,625.835022 
	C373.375244,627.442932 375.537079,630.890503 378.092590,633.867920 
z"/>
<path fill="#111585" opacity="1.000000" stroke="none" 
	d="
M419.612366,130.157837 
	C394.708191,127.415886 370.430359,128.121765 346.114960,134.044785 
	C345.089966,131.599945 344.079895,129.190704 342.666351,125.819122 
	C376.445892,117.677742 409.719940,117.776390 443.602112,125.758873 
	C442.287506,129.102325 441.334320,131.526611 440.424072,133.841629 
	C433.408142,132.586044 426.735443,131.391891 419.612366,130.157837 
z"/>
<path fill="#101484" opacity="1.000000" stroke="none" 
	d="
M484.829865,84.944611 
	C485.548615,87.608482 486.286163,90.307800 487.038422,93.060844 
	C473.463470,102.274986 465.801910,116.106255 457.661469,130.300842 
	C455.196594,129.177597 452.719696,128.048859 449.719238,126.681557 
	C457.442841,112.121750 465.676910,98.429169 478.589172,88.216812 
	C480.231750,86.917679 482.389801,86.270317 484.615753,85.166275 
	C484.922455,85.011543 484.848663,84.980049 484.829865,84.944611 
z"/>
<path fill="#0F1384" opacity="1.000000" stroke="none" 
	d="
M301.112915,85.011742 
	C304.665283,87.343582 308.705780,89.178833 311.762024,92.058624 
	C322.121887,101.820290 329.524902,113.753304 336.066925,126.620667 
	C333.446808,127.880791 331.083252,129.017532 328.343140,130.335373 
	C320.260071,116.616600 312.732819,102.510460 298.775391,92.955521 
	C299.523834,90.663689 300.332581,88.187256 301.167572,85.317482 
	C301.193848,84.924133 301.149994,84.993835 301.112915,85.011742 
z"/>
<path fill="#111584" opacity="1.000000" stroke="none" 
	d="
M410.203491,159.124023 
	C415.049255,153.281876 421.284149,154.468674 427.070648,155.382935 
	C435.346619,156.690521 441.709229,161.384735 446.782806,169.007233 
	C444.456085,170.530777 442.182129,172.019775 440.985657,172.803253 
	C435.437958,169.631226 430.757721,166.316559 425.594269,164.157837 
	C418.476074,161.181870 415.166107,166.556442 412.181213,172.095505 
	C409.468658,170.647812 407.057159,169.360794 404.260040,167.867981 
	C406.319458,164.826782 408.150177,162.123337 410.203491,159.124023 
z"/>
<path fill="#101484" opacity="1.000000" stroke="none" 
	d="
M373.642822,170.109375 
	C366.837524,160.196060 358.959686,161.289642 347.269562,173.573227 
	C345.077972,172.191818 342.860138,170.793884 340.208496,169.122498 
	C346.120667,160.042236 354.063232,155.276291 364.528412,154.841446 
	C373.712555,154.459808 376.343445,156.447311 382.831573,168.818268 
	C379.621368,169.376663 376.742371,169.877457 373.642822,170.109375 
z"/>
<path fill="#EFEFF7" opacity="1.000000" stroke="none" 
	d="
M263.000183,686.031799 
	C233.844254,686.143311 205.394516,683.982483 176.824829,678.531372 
	C177.054260,676.676392 177.248810,675.103638 177.315598,674.563721 
	C201.662170,676.451477 225.590042,679.280457 249.574448,679.891663 
	C273.420624,680.499329 297.323578,678.878052 321.667297,678.221558 
	C321.733826,678.895996 321.888245,680.460999 322.165649,683.272705 
	C302.298096,684.207092 282.899170,685.119446 263.000183,686.031799 
z"/>
<path fill="#EEEFF7" opacity="1.000000" stroke="none" 
	d="
M575.055298,683.879761 
	C538.714172,687.185547 502.897186,686.831421 467.171844,682.430115 
	C467.022644,681.452942 466.870697,680.966797 466.891632,680.488159 
	C466.934479,679.507874 467.070190,678.531616 467.231018,676.918640 
	C515.166443,682.296082 562.852478,681.876587 610.659241,673.122437 
	C610.976746,673.893372 611.411987,674.729187 611.659485,675.617371 
	C611.875305,676.391724 611.879333,677.225098 612.080627,678.890808 
	C599.777344,680.564697 587.644958,682.215393 575.055298,683.879761 
z"/>
<path fill="#F2F2F8" opacity="1.000000" stroke="none" 
	d="
M619.333313,597.291504 
	C620.749084,596.987732 621.928345,596.581787 622.962524,596.816101 
	C639.066711,600.466309 654.733154,605.317810 668.944397,614.031128 
	C669.779907,614.543335 670.545410,615.169678 671.757019,616.039917 
	C670.699707,617.577942 669.738159,618.976746 668.712219,620.469177 
	C652.023804,609.725220 633.595398,604.795227 614.227783,600.489441 
	C616.085693,599.327759 617.557556,598.407410 619.333313,597.291504 
z"/>
<path fill="#F2F2F9" opacity="1.000000" stroke="none" 
	d="
M162.483032,597.461731 
	C166.280075,598.091309 169.690765,598.866638 173.101440,599.641907 
	C154.696457,605.121521 136.472641,609.740723 120.245888,620.431763 
	C119.137077,619.057251 118.126907,617.805054 116.755119,616.104553 
	C130.629471,606.526672 146.220016,601.726807 162.483032,597.461731 
z"/>
<path fill="#FDFDFE" opacity="1.000000" stroke="none" 
	d="
M369.012207,338.999878 
	C369.012207,321.425323 369.012207,304.350769 369.012207,286.588074 
	C385.093506,295.680206 400.736908,296.144623 416.592072,286.770782 
	C416.592072,311.453430 416.592072,335.481812 416.592072,359.748871 
	C400.787872,359.748871 385.205750,359.748871 369.012207,359.748871 
	C369.012207,353.018097 369.012207,346.258972 369.012207,338.999878 
z"/>
<path fill="#F5F6FA" opacity="1.000000" stroke="none" 
	d="
M414.882141,382.854919 
	C400.182312,383.222809 385.723846,383.222809 370.644714,383.222809 
	C370.338623,378.687927 370.030640,374.124695 369.697205,369.184631 
	C385.233490,369.184631 400.436005,369.184631 416.252014,369.184631 
	C415.871185,373.673920 415.497375,378.080444 414.882141,382.854919 
z"/>
</svg>